<svg xmlns="http://www.w3.org/2000/svg" xmlns:xlink="http://www.w3.org/1999/xlink" width="29" height="21.25" viewBox="0 0 29 21.25">
  <metadata><?xpacket begin="﻿" id="W5M0MpCehiHzreSzNTczkc9d"?>
<x:xmpmeta xmlns:x="adobe:ns:meta/" x:xmptk="Adobe XMP Core 5.6-c142 79.160924, 2017/07/13-01:06:39        ">
   <rdf:RDF xmlns:rdf="http://www.w3.org/1999/02/22-rdf-syntax-ns#">
      <rdf:Description rdf:about=""/>
   </rdf:RDF>
</x:xmpmeta>
                                                                                                    
                                                                                                    
                                                                                                    
                                                                                                    
                                                                                                    
                                                                                                    
                                                                                                    
                                                                                                    
                                                                                                    
                                                                                                    
                                                                                                    
                                                                                                    
                                                                                                    
                                                                                                    
                                                                                                    
                                                                                                    
                                                                                                    
                                                                                                    
                                                                                                    
                                                                                                    
                           
<?xpacket end="w"?></metadata>
<defs>
    <style>
      .cls-1 {
        fill: #fff;
        fill-rule: evenodd;
        filter: url(#filter);
      }
    </style>
    <filter id="filter" x="228" y="371.75" width="29" height="21.25" filterUnits="userSpaceOnUse">
      <feOffset result="offset" dy="1" in="SourceAlpha"/>
      <feGaussianBlur result="blur" stdDeviation="1"/>
      <feFlood result="flood" flood-opacity="0.13"/>
      <feComposite result="composite" operator="in" in2="blur"/>
      <feBlend result="blend" in="SourceGraphic"/>
    </filter>
  </defs>
  <path class="cls-1" d="M255.012,379.777a6.143,6.143,0,0,1-2.862-.291,3.061,3.061,0,0,0,2.751-1.639,4.519,4.519,0,0,1-2.977.332c-0.044-.207-0.092-0.4-0.14-0.58-0.667-2.458-2.957-4.438-5.355-4.2,0.193-.079.39-0.152,0.588-0.218,0.262-.095,1.812-0.347,1.568-0.894-0.206-.482-2.1.362-2.455,0.474a1.885,1.885,0,0,0,1.331-1.023,3.753,3.753,0,0,0-1.974.936,1.351,1.351,0,0,0,.378-0.75c-1.922,1.23-3.046,3.707-3.954,6.112A9.411,9.411,0,0,0,240,376.5a50.213,50.213,0,0,0-6.482-2.856,3.435,3.435,0,0,0,2.16,3.18,5.29,5.29,0,0,0-1.553.187c0.215,1.134.92,2.068,2.829,2.519a2.312,2.312,0,0,0-1.732.684,2.931,2.931,0,0,0,3.11,1.526c-1.939.837-.791,2.387,0.788,2.155a6.7,6.7,0,0,1-9.372.251c6.362,8.678,20.192,5.132,22.252-3.227A3.828,3.828,0,0,0,255.012,379.777Z" transform="translate(-228 -371.75)"/>
</svg>
